<svg width="16" height="16" viewBox="0 0 16 16" fill="none" xmlns="http://www.w3.org/2000/svg">
<path d="M7.77901 0C7.60221 0 7.42541 0.08 7.33702 0.16L6.09945 1.2L4.68508 0.96C4.24309 0.88 3.9779 1.12 3.8895 1.44L3.62431 2.88L2.12155 3.52C1.76796 3.68 1.67956 4 1.85635 4.32L2.56354 5.6L1.85635 6.88C1.67956 7.2 1.85635 7.52 2.12155 7.68L3.62431 8.32L3.8895 9.76C3.9779 10.08 4.33149 10.32 4.68508 10.24L6.36464 10L7.60221 11.04C7.8674 11.28 8.30939 11.28 8.57458 11.04L9.81215 10L11.4917 10.24C11.8453 10.32 12.1989 10.08 12.2873 9.76L12.5525 8.32L14.0552 7.68C14.4088 7.52 14.4972 7.2 14.3204 6.88L13.3481 5.6L14.0552 4.32C14.232 4 14.1436 3.68 13.7901 3.52L12.2873 2.88L12.0221 1.44C11.9337 1.12 11.5801 0.88 11.2265 0.96L9.54696 1.2L8.30939 0.16C8.22099 3.57628e-08 7.9558 0 7.77901 0ZM2.74033 8.88L0 13.84L3.18232 13.44L4.77348 16L7.07182 11.76L6.89503 11.6L6.01105 10.88L4.77348 11.04C3.9779 11.12 3.18232 10.64 3.00552 9.92L2.74033 8.88ZM13.1713 8.88L12.9061 9.92C12.7293 10.56 12.1105 11.04 11.4033 11.04H11.2265L9.98895 10.88L9.10497 11.6L8.92818 11.76L11.2265 16L12.8177 13.52L16 13.92L13.1713 8.88Z" fill="white"/>
</svg>
