<svg width="18" height="16" viewBox="0 0 18 16" fill="none" xmlns="http://www.w3.org/2000/svg">
<path d="M16.0523 3.63073C14.542 3.39423 13.4536 1.46824 12.172 1.00307C12.0192 0.947644 11.1988 1.66062 11.0438 1.76445C8.82897 3.24792 6.43446 4.41848 4.2077 5.89015C3.71044 6.21877 1.20796 7.19414 1.02655 7.78656C0.994276 7.89226 0.988156 8.04381 1.02655 8.05139C1.59889 8.16468 2.18962 8.63382 2.67343 8.95995C2.98312 9.16866 5.71069 11.2937 5.93494 11.1209C8.3132 9.28788 13.4397 5.72536 16.2329 3.90087" stroke="white" stroke-opacity="0.9" stroke-width="1.182" stroke-linecap="round" stroke-linejoin="round"/>
<path d="M16.6797 5.30042C13.2741 6.985 8.68338 11.9753 5.97555 13.4487C5.85424 13.5147 4.90684 12.7207 4.75104 12.6359C3.7783 12.1064 2.86765 11.3974 2.02734 10.649" stroke="white" stroke-opacity="0.9" stroke-width="1.182" stroke-linecap="round" stroke-linejoin="round"/>
<path d="M16.9997 6.93095C16.1265 6.536 6.9183 15.376 6.02815 14.9876C5.13806 14.5994 3.29771 13.114 2.19922 12.2599" stroke="white" stroke-opacity="0.9" stroke-width="1.182" stroke-linecap="round" stroke-linejoin="round"/>
<path d="M8.24593 4.95699C10.3517 2.41748 12.0876 7.47291 8.53924 6.94627C7.80803 6.83781 7.40427 5.22382 7.97497 4.8095" stroke="white" stroke-opacity="0.9" stroke-width="1.182" stroke-linecap="round" stroke-linejoin="round"/>
<path d="M3.53125 7.53569C3.90966 8.04957 4.18145 7.69738 4.88513 7.16736" stroke="white" stroke-opacity="0.9" stroke-width="1.182" stroke-linecap="round" stroke-linejoin="round"/>
<path d="M13.3223 4.19558C13.6874 3.96081 13.3899 4.15525 13.3899 3.70459" stroke="white" stroke-opacity="0.9" stroke-width="1.182" stroke-linecap="round" stroke-linejoin="round"/>
</svg>
