<svg width="16" height="16" viewBox="0 0 16 16" fill="none" xmlns="http://www.w3.org/2000/svg">
<path d="M15.9811 6.74411C15.9217 6.44765 15.7235 6.20255 15.4545 6.09252L14.5108 5.7074V6.72619L14.6895 6.79914C14.7701 6.83222 14.8296 6.90579 14.8473 6.99449C14.8649 7.08349 14.839 7.17622 14.7778 7.24051L8.72255 13.5987C8.60274 13.7242 8.42377 13.7637 8.26567 13.6994L6.91992 13.1498V14.1686L7.86448 14.5544C8.40136 14.7735 9.01067 14.6391 9.41808 14.2113L15.7491 7.56322C15.9531 7.349 16.0406 7.04083 15.9811 6.74411Z" fill="white"/>
<path d="M0.966062 9.43353C1.00844 8.81348 1.19803 8.00116 1.85562 8.03949L7.86187 10.4925C8.40025 10.7123 9.01131 10.5763 9.41869 10.146L15.224 4.0098C15.4272 3.79525 15.5137 3.48741 15.4539 3.19161C15.3942 2.89551 15.1964 2.651 14.9279 2.54156L8.95831 0.103722C8.41994 -0.116077 7.80859 0.0199441 7.4015 0.450222L0.676437 7.55825C0.144531 8.0179 0 8.87501 0 9.6363C0 10.3976 0.0482812 11.3113 0.870125 11.6665L0.676437 11.6189L2.48712 12.3583V11.6776C2.48712 11.5669 2.50025 11.4588 2.52172 11.3534L1.30484 10.8563C0.917812 10.7024 0.9175 10.1494 0.966062 9.43353Z" fill="white"/>
<path d="M3.47089 11.1719C3.34314 11.3067 3.27148 11.4884 3.27148 11.6776V14.8304L4.5472 14.5435L6.13745 16V12.8481C6.13745 12.658 6.20927 12.4763 6.33702 12.3421L6.84552 11.808L3.9797 10.6378L3.47089 11.1719Z" fill="white"/>
</svg>
