<svg width="16" height="16" viewBox="0 0 16 16" fill="none" xmlns="http://www.w3.org/2000/svg">
<path d="M5.6 0H1.6C0.716344 0 0 0.716344 0 1.6V7.2C0 8.08366 0.716344 8.8 1.6 8.8H5.6C6.48366 8.8 7.2 8.08366 7.2 7.2V1.6C7.2 0.716344 6.48366 0 5.6 0Z" fill="white"/>
<path d="M14.4008 0H10.4008C9.51713 0 8.80078 0.716344 8.80078 1.6V4C8.80078 4.88366 9.51713 5.6 10.4008 5.6H14.4008C15.2844 5.6 16.0008 4.88366 16.0008 4V1.6C16.0008 0.716344 15.2844 0 14.4008 0Z" fill="white"/>
<path d="M5.6 10.4H1.6C0.716344 10.4 0 11.1163 0 12V14.4C0 15.2836 0.716344 16 1.6 16H5.6C6.48366 16 7.2 15.2836 7.2 14.4V12C7.2 11.1163 6.48366 10.4 5.6 10.4Z" fill="white"/>
<path d="M14.4008 7.19998H10.4008C9.51713 7.19998 8.80078 7.91633 8.80078 8.79998V14.4C8.80078 15.2836 9.51713 16 10.4008 16H14.4008C15.2844 16 16.0008 15.2836 16.0008 14.4V8.79998C16.0008 7.91633 15.2844 7.19998 14.4008 7.19998Z" fill="white"/>
</svg>
