<svg width="16" height="12" viewBox="0 0 16 12" fill="none" xmlns="http://www.w3.org/2000/svg">
<path d="M7.9375 0.0234375C7.91406 0.03125 7.53125 0.238281 6.78906 0.644531C6.05469 1.04297 5.24609 1.48438 4.36328 1.96875C3.48047 2.45312 2.67188 2.89844 1.9375 3.30469C1.19531 3.71094 0.8125 3.92578 0.789062 3.94922C0.734375 3.99609 0.6875 4.05664 0.648438 4.13086C0.609375 4.20508 0.589844 4.28125 0.589844 4.35938C0.589844 4.42969 0.601562 4.49414 0.625 4.55273C0.648438 4.61133 0.683594 4.66406 0.730469 4.71094C0.753906 4.75 0.84375 4.81445 1 4.9043C1.15625 4.99414 1.41016 5.13672 1.76172 5.33203L2.72266 5.85938L2.73438 7.94531L2.75781 10.0195L2.81641 10.1133C2.85547 10.1758 2.95117 10.2695 3.10352 10.3945C3.25586 10.5195 3.42188 10.6406 3.60156 10.7578C3.79688 10.8828 4.00781 11.002 4.23438 11.1152C4.46094 11.2285 4.69141 11.3359 4.92578 11.4375L4.98438 11.4609C5.44531 11.6328 5.93945 11.7656 6.4668 11.8594C6.99414 11.9531 7.53516 12 8.08984 12C8.64453 12 9.1875 11.9512 9.71875 11.8535C10.25 11.7559 10.7617 11.6172 11.2539 11.4375L11.1953 11.4609C11.6328 11.2969 12.0898 11.0625 12.5664 10.7578C13.043 10.4531 13.3203 10.2188 13.3984 10.0547C13.4062 10.0312 13.4141 9.85742 13.4219 9.5332C13.4297 9.20898 13.4375 8.67188 13.4453 7.92188L13.457 5.85938L14.5 5.28516L14.5117 6.53906C14.5195 7.14844 14.5273 7.51367 14.5352 7.63477C14.543 7.75586 14.5586 7.83984 14.582 7.88672C14.6211 7.97266 14.6816 8.04297 14.7637 8.09766C14.8457 8.15234 14.9375 8.17969 15.0391 8.17969C15.0391 8.17969 15.041 8.17969 15.0449 8.17969C15.0488 8.17969 15.0547 8.17969 15.0625 8.17969C15.1797 8.17188 15.2832 8.13477 15.373 8.06836C15.4629 8.00195 15.5234 7.91406 15.5547 7.80469H15.5664C15.5742 7.76562 15.582 7.5625 15.5898 7.19531C15.5898 6.82812 15.5898 6.42773 15.5898 5.99414C15.5898 5.56055 15.5859 5.16016 15.5781 4.79297C15.5781 4.42578 15.5703 4.22656 15.5547 4.19531C15.5391 4.15625 15.5215 4.11914 15.502 4.08398C15.4824 4.04883 15.457 4.01562 15.4258 3.98438C15.4102 3.96875 15.3281 3.91797 15.1797 3.83203C15.0312 3.74609 14.8105 3.62109 14.5176 3.45703C14.2246 3.29297 13.8555 3.08984 13.4102 2.84766C12.957 2.59766 12.418 2.30078 11.793 1.95703C10.1992 1.08203 9.20508 0.541016 8.81055 0.333984C8.41602 0.126953 8.19141 0.0195312 8.13672 0.0117188C8.12109 0.0117188 8.10938 0.0117188 8.10156 0.0117188C8.09375 0.0117188 8.08594 0.0117188 8.07812 0.0117188C8.05469 0.0117188 8.03125 0.0117188 8.00781 0.0117188C7.98438 0.0117188 7.96094 0.015625 7.9375 0.0234375ZM11.0078 2.76562C11.4062 2.98438 11.7812 3.1875 12.1328 3.375C12.4844 3.57031 12.791 3.74023 13.0527 3.88477C13.3145 4.0293 13.5234 4.14453 13.6797 4.23047C13.8281 4.31641 13.9062 4.35938 13.9141 4.35938C13.9141 4.35938 13.6133 4.52734 13.0117 4.86328C12.4102 5.19922 11.7461 5.56445 11.0195 5.95898C10.293 6.35352 9.625 6.71875 9.01562 7.05469C8.40625 7.38281 8.09766 7.54688 8.08984 7.54688C8.08984 7.54688 8.01172 7.50781 7.85547 7.42969C7.69922 7.34375 7.48828 7.22852 7.22266 7.08398C6.95703 6.93945 6.64844 6.76953 6.29688 6.57422C5.9375 6.38672 5.55859 6.18359 5.16016 5.96484C3.78516 5.20703 2.96094 4.75 2.6875 4.59375C2.41406 4.4375 2.29297 4.35156 2.32422 4.33594C2.37109 4.30469 2.69531 4.12109 3.29688 3.78516C3.90625 3.45703 4.56445 3.09961 5.27148 2.71289C5.97852 2.32617 6.62109 1.97266 7.19922 1.65234C7.77734 1.33984 8.07031 1.17969 8.07812 1.17188C8.08594 1.17188 8.16406 1.21484 8.3125 1.30078C8.46875 1.38672 8.67969 1.50195 8.94531 1.64648C9.21094 1.79102 9.51953 1.95703 9.87109 2.14453C10.2305 2.33984 10.6094 2.54688 11.0078 2.76562ZM5.82812 7.57031C6.36719 7.85938 6.83594 8.11328 7.23438 8.33203C7.63281 8.55078 7.84766 8.66797 7.87891 8.68359C7.91016 8.69141 7.94336 8.69922 7.97852 8.70703C8.01367 8.71484 8.05078 8.71875 8.08984 8.71875C8.12891 8.71875 8.16602 8.71484 8.20117 8.70703C8.23633 8.69922 8.26953 8.6875 8.30078 8.67188V8.68359C8.33203 8.66797 8.54688 8.55078 8.94531 8.33203C9.34375 8.11328 9.8125 7.85938 10.3516 7.57031C10.8828 7.27344 11.3438 7.01953 11.7344 6.80859C12.125 6.59766 12.3242 6.48828 12.332 6.48047C12.3477 6.48047 12.3574 6.57227 12.3613 6.75586C12.3652 6.93945 12.3672 7.35938 12.3672 8.01562V9.5625L12.3086 9.62109C12.2461 9.67578 12.1152 9.76367 11.916 9.88477C11.7168 10.0059 11.5469 10.1016 11.4062 10.1719C11.0469 10.3516 10.6641 10.5 10.2578 10.6172C9.85156 10.7344 9.42969 10.8164 8.99219 10.8633H8.96875C8.71875 10.8945 8.375 10.9062 7.9375 10.8984C7.5 10.8906 7.16406 10.8672 6.92969 10.8281C6.5625 10.7734 6.21289 10.6973 5.88086 10.5996C5.54883 10.502 5.23047 10.3867 4.92578 10.2539L4.97266 10.2656C4.77734 10.1797 4.59375 10.0859 4.42188 9.98438C4.25 9.88281 4.08594 9.77734 3.92969 9.66797L3.95312 9.67969L3.82422 9.58594V8.02734C3.81641 7.36328 3.81445 6.9375 3.81836 6.75C3.82227 6.5625 3.83203 6.47266 3.84766 6.48047C3.85547 6.48828 4.05469 6.59766 4.44531 6.80859C4.83594 7.01953 5.29688 7.27344 5.82812 7.57031Z" fill="#EFEFEF"/>
</svg>
