<svg width="16" height="13" viewBox="0 0 16 13" fill="none" xmlns="http://www.w3.org/2000/svg">
<path fill-rule="evenodd" clip-rule="evenodd" d="M15.0387 7.15101H9.9243C9.79844 7.15056 9.67373 7.17542 9.55736 7.22417C9.44099 7.27292 9.33526 7.34458 9.24626 7.43503C9.15726 7.52549 9.08675 7.63294 9.03879 7.75121C8.99083 7.86948 8.96636 7.99622 8.9668 8.12414V12.0235C8.96636 12.1515 8.99081 12.2785 9.03873 12.3969C9.08665 12.5154 9.15711 12.623 9.24607 12.7138C9.33502 12.8045 9.44072 12.8765 9.55711 12.9256C9.6735 12.9747 9.79828 13 9.9243 13H15.0387C15.2936 13 15.538 12.8971 15.7181 12.714C15.8983 12.5308 15.9996 12.2825 15.9996 12.0235V8.12414C15.9996 7.99606 15.9747 7.86924 15.9264 7.75095C15.878 7.63267 15.8072 7.52524 15.7179 7.43483C15.6287 7.34442 15.5227 7.27281 15.4062 7.22411C15.2896 7.1754 15.1648 7.15056 15.0387 7.15101ZM15.3724 12.0235C15.3724 12.1134 15.3372 12.1996 15.2746 12.2632C15.2121 12.3268 15.1272 12.3625 15.0387 12.3625H9.9243C9.83582 12.3625 9.75096 12.3268 9.68839 12.2632C9.62583 12.1996 9.59068 12.1134 9.59068 12.0235V8.77516C9.59068 8.68523 9.62583 8.59899 9.68839 8.5354C9.75096 8.47181 9.83582 8.43609 9.9243 8.43609H15.0387C15.1272 8.43609 15.2121 8.47181 15.2746 8.5354C15.3372 8.59899 15.3724 8.68523 15.3724 8.77516V12.0235Z" fill="white"/>
<path fill-rule="evenodd" clip-rule="evenodd" d="M8.32668 3.3602C8.32668 1.55973 7.28244 0 5.44752 0C3.6126 0 2.57169 1.55973 2.57169 3.3602C2.56111 3.80415 2.639 4.24568 2.80069 4.65824C2.96237 5.0708 3.2045 5.44585 3.51251 5.76082C3.87473 6.07701 4.10691 6.51991 4.16307 7.00183C4.16307 7.47992 4.00961 7.87663 2.96203 8.35811C1.46407 9.03625 0.0394988 9.80256 0.00280037 11.2368C-0.00981421 11.4558 0.0202744 11.6752 0.0913371 11.8823C0.1624 12.0894 0.273035 12.2802 0.416886 12.4438C0.560737 12.6073 0.734967 12.7403 0.929563 12.8352C1.12416 12.9301 1.33529 12.9849 1.55081 12.9966H8.26329C8.09439 12.6998 8.00576 12.3629 8.0064 12.0201V8.3988L7.923 8.35811C6.92213 7.87663 6.72196 7.44262 6.72196 7.00183C6.74052 6.76203 6.80653 6.52851 6.91602 6.31527C7.02552 6.10202 7.17625 5.91344 7.35918 5.76082C7.67138 5.44765 7.91803 5.07354 8.0843 4.66099C8.25056 4.24844 8.33301 3.80597 8.32668 3.3602Z" fill="white"/>
</svg>
