<svg width="18" height="15" viewBox="0 0 18 15" fill="none" xmlns="http://www.w3.org/2000/svg">
<path d="M3.85586 10.375H1.23086C0.738672 10.375 0.355859 10.7852 0.355859 11.25V13.875C0.355859 14.3672 0.738672 14.75 1.23086 14.75H3.85586C4.3207 14.75 4.73086 14.3672 4.73086 13.875V11.25C4.73086 10.7852 4.3207 10.375 3.85586 10.375ZM3.19961 8.1875H8.44961V9.5H9.76211V8.1875H15.0121V9.5H16.3246V7.94141C16.3246 7.36719 15.8324 6.875 15.2582 6.875H9.76211V5.125H10.8559C11.3207 5.125 11.7309 4.74219 11.7309 4.25V1.625C11.7309 1.16016 11.3207 0.75 10.8559 0.75H7.35586C6.86367 0.75 6.48086 1.16016 6.48086 1.625V4.25C6.48086 4.74219 6.86367 5.125 7.35586 5.125H8.44961V6.875H2.92617C2.35195 6.875 1.88711 7.36719 1.88711 7.94141V9.5H3.19961V8.1875ZM10.4184 10.375H7.79336C7.30117 10.375 6.91836 10.7852 6.91836 11.25V13.875C6.91836 14.3672 7.30117 14.75 7.79336 14.75H10.4184C10.8832 14.75 11.2934 14.3672 11.2934 13.875V11.25C11.2934 10.7852 10.8832 10.375 10.4184 10.375ZM16.9809 10.375H14.3559C13.8637 10.375 13.4809 10.7852 13.4809 11.25V13.875C13.4809 14.3672 13.8637 14.75 14.3559 14.75H16.9809C17.4457 14.75 17.8559 14.3672 17.8559 13.875V11.25C17.8559 10.7852 17.4457 10.375 16.9809 10.375Z" fill="white"/>
</svg>
