<svg width="12" height="12" viewBox="0 0 12 12" fill="none" xmlns="http://www.w3.org/2000/svg">
<path d="M5.63672 0.0234385C5.25391 0.0468759 4.88281 0.101563 4.52344 0.187501C4.17188 0.281251 3.83203 0.402345 3.50391 0.550782C3.17578 0.69922 2.86328 0.875001 2.56641 1.07813C2.27734 1.28906 2.00781 1.51953 1.75781 1.76953C1.52344 1.99609 1.30859 2.24609 1.11328 2.51953C0.925781 2.78516 0.757813 3.06641 0.609375 3.36328C0.460937 3.66016 0.339844 3.96875 0.246094 4.28906C0.144531 4.61719 0.0742187 4.95313 0.0351562 5.29688V5.32031C0.0273437 5.42188 0.0195313 5.53125 0.0117188 5.64844C0.00390625 5.76563 0 5.88281 0 6C0 6.11719 0.00390625 6.23438 0.0117188 6.35156C0.0195313 6.46875 0.0273437 6.58594 0.0351562 6.70313V6.67969C0.0742187 7.03125 0.144531 7.37109 0.246094 7.69922C0.339844 8.01953 0.460937 8.33008 0.609375 8.63086C0.757813 8.93164 0.925781 9.21484 1.11328 9.48047C1.30859 9.74609 1.52344 9.99609 1.75781 10.2305C2.04687 10.5195 2.36328 10.7793 2.70703 11.0098C3.05078 11.2402 3.41797 11.4297 3.80859 11.5781L3.85547 11.6016C4.16797 11.7188 4.50586 11.8125 4.86914 11.8828C5.23242 11.9531 5.60938 11.9883 6 11.9883C6.20313 11.9883 6.4082 11.9785 6.61523 11.959C6.82227 11.9395 7.02344 11.9063 7.21875 11.8594L7.17188 11.8711C7.52344 11.8008 7.86328 11.6992 8.19141 11.5664C8.51172 11.4414 8.81641 11.291 9.10547 11.1152C9.39453 10.9395 9.66797 10.7383 9.92578 10.5117C10.1758 10.293 10.4062 10.0508 10.6172 9.78516H10.6289C10.9805 9.35547 11.2695 8.88086 11.4961 8.36133C11.7227 7.8418 11.8711 7.28906 11.9414 6.70313V6.67969C11.9492 6.57813 11.957 6.46875 11.9648 6.35156C11.9727 6.23438 11.9766 6.11719 11.9766 6C11.9766 5.88281 11.9727 5.76563 11.9648 5.64844C11.957 5.53125 11.9492 5.41406 11.9414 5.29688V5.32031C11.8867 4.85156 11.7812 4.39844 11.625 3.96094C11.4688 3.53125 11.2656 3.125 11.0156 2.74219C10.7656 2.35938 10.4766 2.00781 10.1484 1.6875C9.8125 1.36719 9.4375 1.08594 9.02344 0.843751C8.53906 0.546876 8 0.326173 7.40625 0.181642C6.8125 0.0371103 6.22266 -0.015624 5.63672 0.0234385ZM6.52734 1.01953C6.98047 1.06641 7.41797 1.17578 7.83984 1.34766C8.26172 1.51172 8.65039 1.72852 9.00586 1.99805C9.36133 2.26758 9.67578 2.58203 9.94922 2.94141C10.2305 3.30078 10.4609 3.69922 10.6406 4.13672C10.75 4.41016 10.8359 4.70508 10.8984 5.02148C10.9609 5.33789 10.9922 5.66406 10.9922 6C10.9922 6.33594 10.9609 6.66406 10.8984 6.98438C10.8359 7.30469 10.7461 7.60938 10.6289 7.89844L10.6406 7.86328C10.4609 8.29297 10.2344 8.6875 9.96094 9.04688C9.6875 9.39844 9.37695 9.70898 9.0293 9.97852C8.68164 10.248 8.30078 10.4648 7.88672 10.6289C7.47266 10.8008 7.03906 10.9141 6.58594 10.9688C6.49219 10.9766 6.39258 10.9844 6.28711 10.9922C6.18164 11 6.07422 11.0039 5.96484 11.0039C5.87891 11.0039 5.79102 11.002 5.70117 10.998C5.61133 10.9941 5.51953 10.9883 5.42578 10.9805H5.44922C4.86328 10.9102 4.31641 10.75 3.80859 10.5C3.29297 10.25 2.83984 9.92969 2.44922 9.53906C2.05859 9.14844 1.73828 8.69922 1.48828 8.19141C1.23828 7.68359 1.07812 7.14063 1.00781 6.5625V6.53906C1 6.45313 0.994141 6.36523 0.990234 6.27539C0.986328 6.18555 0.984375 6.09375 0.984375 6C0.984375 5.90625 0.986328 5.8125 0.990234 5.71875C0.994141 5.625 1 5.53125 1.00781 5.4375V5.46094C1.07031 4.88281 1.22656 4.33984 1.47656 3.83203C1.71875 3.33203 2.03125 2.88672 2.41406 2.49609C2.79688 2.10547 3.23828 1.78125 3.73828 1.52344C4.23828 1.27344 4.77344 1.10938 5.34375 1.03125H5.36719C5.46094 1.02344 5.5625 1.01758 5.67188 1.01367C5.78125 1.00977 5.89063 1.00781 6 1.00781C6.09375 1.00781 6.18555 1.00781 6.27539 1.00781C6.36523 1.00781 6.45703 1.01172 6.55078 1.01953H6.52734ZM5.88281 2.51953C5.78906 2.53516 5.7168 2.5625 5.66602 2.60156C5.61523 2.64063 5.57031 2.69531 5.53125 2.76563C5.51562 2.80469 5.50586 2.9043 5.50195 3.06445C5.49805 3.22461 5.49609 3.64453 5.49609 4.32422L5.48438 5.8125L4.52344 6.78516C4.01563 7.28516 3.71289 7.5918 3.61523 7.70508C3.51758 7.81836 3.46875 7.91797 3.46875 8.00391C3.46875 8.11328 3.52734 8.22656 3.64453 8.34375C3.76172 8.46094 3.875 8.51953 3.98438 8.51953C4.07031 8.51953 4.17578 8.46484 4.30078 8.35547C4.42578 8.24609 4.77344 7.90625 5.34375 7.33594C5.77344 6.89844 6.0625 6.60352 6.21094 6.45117C6.35938 6.29883 6.44141 6.20703 6.45703 6.17578C6.46484 6.13672 6.4707 6.00781 6.47461 5.78906C6.47852 5.57031 6.48047 5.13281 6.48047 4.47656C6.48047 3.72656 6.47852 3.26758 6.47461 3.09961C6.4707 2.93164 6.46094 2.82422 6.44531 2.77734C6.40625 2.67578 6.33594 2.60156 6.23438 2.55469C6.13281 2.50781 6.01562 2.49609 5.88281 2.51953Z" fill="#EFEFEF"/>
</svg>
